<svg width="250" height="108" viewBox="0 0 250 108" fill="none" xmlns="http://www.w3.org/2000/svg">
<path d="M47.7507 70.4563C47.1382 70.4563 46.5132 70.2811 45.9757 69.9057C44.5257 68.9173 44.1507 66.9403 45.1382 65.5014C50.3132 57.894 49.3382 47.634 42.8257 41.1151C36.3757 34.6588 26.2007 33.6328 18.6257 38.6752L18.5632 38.7252C17.1132 39.6887 15.1757 39.4009 14.0757 38.0496C12.9632 36.6983 13.0632 34.7464 14.3007 33.5076L44.9382 2.84017C46.1757 1.60146 48.1882 1.60146 49.4257 2.84017C50.6632 4.07888 50.6632 6.09335 49.4257 7.33206L27.5757 29.1909C28.9257 29.1033 30.2882 29.1159 31.6507 29.2535C37.5507 29.804 43.1132 32.4316 47.3007 36.6232C55.9757 45.2942 57.2632 58.945 50.3757 69.0674C49.7632 69.9683 48.7632 70.4563 47.7507 70.4563Z" fill="black"/>
<path d="M10.6128 104.765C9.37532 103.526 9.37532 101.512 10.6128 100.273L30.2128 80.6537C28.8628 80.7413 27.5003 80.7288 26.1378 80.5911C20.2378 80.0406 14.6753 77.413 10.4878 73.2215C1.81281 64.5505 0.525315 50.9121 7.41282 40.7772C8.38782 39.3383 10.3503 38.963 11.8003 39.9264C13.2503 40.8898 13.6253 42.9293 12.6378 44.3808C7.48781 51.9882 8.46281 62.2232 14.9628 68.7421C18.6628 72.4457 23.6003 74.3601 28.5753 74.3601C32.2503 74.3601 35.9378 73.309 39.1628 71.1694L39.2253 71.1194C40.6753 70.156 42.6128 70.4437 43.7128 71.7951C44.8253 73.1464 44.7253 75.0983 43.4878 76.337L15.0878 104.765C13.8503 106.003 11.8503 106.003 10.6128 104.765Z" fill="black"/>
<path d="M28.8633 67.2282C35.6633 67.2282 41.1758 61.7103 41.1758 54.9036C41.1758 48.097 35.6633 42.5791 28.8633 42.5791C22.0633 42.5791 16.5508 48.097 16.5508 54.9036C16.5508 61.7103 22.0633 67.2282 28.8633 67.2282Z" fill="black"/>
<path d="M115.401 48.7224C117.526 48.7224 119.513 49.1228 121.376 49.9111C123.226 50.6993 124.851 51.8004 126.238 53.1893C127.626 54.5781 128.726 56.2047 129.513 58.0565C130.301 59.9083 130.701 61.9103 130.701 64.0374C130.701 66.1645 130.301 68.1539 129.513 70.0182C128.726 71.87 127.626 73.4966 126.238 74.8855C124.851 76.2743 123.226 77.3754 121.376 78.1637C119.526 78.952 117.526 79.3524 115.401 79.3524C113.276 79.3524 111.288 78.952 109.426 78.1637C107.576 77.3754 105.951 76.2743 104.563 74.8855C103.176 73.4966 102.076 71.87 101.288 70.0182C100.501 68.1664 100.101 66.1645 100.101 64.0374C100.101 61.9103 100.501 59.9209 101.288 58.0565C102.076 56.2047 103.176 54.5781 104.563 53.1893C105.951 51.8004 107.576 50.6993 109.426 49.9111C111.288 49.1228 113.276 48.7224 115.401 48.7224ZM115.426 73.384C116.701 73.384 117.901 73.1463 119.038 72.6583C120.176 72.1703 121.163 71.5072 122.013 70.6564C122.863 69.8055 123.526 68.8045 124.001 67.6659C124.488 66.5273 124.726 65.3136 124.726 64.0374C124.726 62.7611 124.488 61.5474 124.001 60.4088C123.513 59.2702 122.851 58.2692 122.013 57.4184C121.163 56.5676 120.176 55.9044 119.038 55.4165C117.901 54.9285 116.701 54.6907 115.426 54.6907C114.151 54.6907 112.951 54.9285 111.813 55.4165C110.676 55.9044 109.688 56.5676 108.838 57.4184C107.988 58.2692 107.313 59.2702 106.813 60.4088C106.313 61.5474 106.063 62.7611 106.063 64.0374C106.063 65.3136 106.313 66.5273 106.813 67.6659C107.313 68.8045 107.988 69.8055 108.838 70.6564C109.688 71.5072 110.676 72.1703 111.813 72.6583C112.951 73.1338 114.151 73.384 115.426 73.384Z" fill="black"/>
<path d="M140.288 28.4277C141.938 28.4277 143.276 29.7665 143.276 31.4182V76.0868C143.276 77.7384 141.938 79.0772 140.288 79.0772C138.638 79.0772 137.301 77.7384 137.301 76.0868V31.4056C137.301 29.7665 138.638 28.4277 140.288 28.4277Z" fill="black"/>
<path d="M180.413 64.1C180.413 66.2271 180.013 68.2165 179.226 70.0808C178.438 71.9326 177.338 73.5592 175.951 74.9481C174.563 76.3369 172.938 77.438 171.088 78.2263C169.238 79.0146 167.238 79.415 165.113 79.415C162.988 79.415 161.001 79.0146 159.138 78.2263C157.288 77.438 155.663 76.3369 154.276 74.9481C152.888 73.5592 151.788 71.9326 151.001 70.0808C150.213 68.229 149.813 66.2396 149.813 64.1C149.813 61.9729 150.213 59.9835 151.001 58.1191C151.788 56.2673 152.888 54.6407 154.276 53.2519C155.663 51.863 157.288 50.7619 159.138 49.9737C160.988 49.1854 162.976 48.785 165.113 48.785C166.888 48.785 168.563 49.0603 170.126 49.6233C171.688 50.1864 173.126 50.9621 174.438 51.9756V31.2929C174.438 29.6413 175.776 28.3025 177.426 28.3025C179.076 28.3025 180.413 29.6413 180.413 31.2929V64.0374V64.1ZM165.151 73.4341C166.426 73.4341 167.626 73.1964 168.763 72.7084C169.901 72.2204 170.888 71.5573 171.738 70.7064C172.588 69.8556 173.251 68.8546 173.726 67.716C174.213 66.5774 174.451 65.3637 174.451 64.0875V64.0249C174.451 62.7487 174.213 61.5475 173.726 60.4339C173.238 59.3078 172.576 58.3318 171.738 57.481C170.888 56.6302 169.901 55.967 168.763 55.4791C167.626 54.9911 166.426 54.7533 165.151 54.7533C163.876 54.7533 162.676 54.9911 161.538 55.4791C160.401 55.967 159.413 56.6302 158.563 57.481C157.713 58.3318 157.038 59.3328 156.538 60.4714C156.038 61.61 155.788 62.8237 155.788 64.1C155.788 65.3762 156.038 66.5899 156.538 67.7285C157.038 68.8671 157.713 69.8681 158.563 70.719C159.413 71.5698 160.401 72.2329 161.538 72.7209C162.676 73.1964 163.876 73.4341 165.151 73.4341Z" fill="black"/>
<path d="M187.025 42.6039C187.025 40.9523 188.363 39.6135 190.013 39.6135C191.663 39.6135 193 40.9523 193 42.6039C193 44.2556 191.663 45.5944 190.013 45.5944C188.363 45.5944 187.025 44.2556 187.025 42.6039ZM192.988 51.7128V76.3619C192.988 78.0136 191.65 79.3524 190 79.3524C188.35 79.3524 187.013 78.0136 187.013 76.3619V51.7128C187.013 50.0612 188.35 48.7224 190 48.7224C191.65 48.7224 192.988 50.0612 192.988 51.7128Z" fill="black"/>
<path d="M88.4504 50.9372C90.2629 52.1384 91.7129 53.715 92.8004 55.6669C93.8754 57.6188 94.4254 59.7584 94.4254 62.0731V76.4872C94.4254 78.1388 93.0879 79.4776 91.4379 79.4776C89.7879 79.4776 88.4504 78.1388 88.4504 76.4872V73.209V62.0731C88.4504 61.0721 88.2504 60.1212 87.8754 59.2328C87.4879 58.3445 86.9629 57.5562 86.2879 56.8805C85.6129 56.2049 84.8254 55.6669 83.9379 55.2915C83.0504 54.9036 82.1004 54.7159 81.1004 54.7159C80.1004 54.7159 79.1379 54.9161 78.2379 55.2915C77.3254 55.6794 76.5504 56.2049 75.8879 56.8805C75.2254 57.5562 74.7129 58.3445 74.3254 59.2328C73.9379 60.1212 73.7504 61.0721 73.7504 62.0731V73.209V76.4872C73.7504 78.1388 72.4129 79.4776 70.7629 79.4776C69.1129 79.4776 67.7754 78.1388 67.7754 76.4872V62.0731V31.1179C67.7754 29.4662 69.1129 28.1274 70.7629 28.1274C72.4129 28.1274 73.7504 29.4662 73.7504 31.1179V50.9247C74.7879 50.224 75.9379 49.686 77.2004 49.2981C78.4504 48.9103 79.7629 48.7226 81.1129 48.7226C82.4629 48.7226 83.7629 48.9228 85.0254 49.2981C86.2629 49.6985 87.4129 50.2366 88.4504 50.9372Z" fill="black"/>
<path d="M245.375 55.5416C244.287 53.5897 242.85 52.0132 241.025 50.812C239.987 50.1113 238.837 49.5733 237.575 49.1854C236.325 48.7975 235.013 48.6099 233.663 48.6099C232.313 48.6099 231 48.8101 229.75 49.1854C228.5 49.5733 227.325 50.1113 226.25 50.812C225.125 51.5878 224.15 52.5137 223.3 53.6022C222.413 52.4761 221.413 51.5502 220.288 50.812C219.25 50.1113 218.1 49.5733 216.837 49.1854C215.587 48.7975 214.275 48.6099 212.925 48.6099C211.575 48.6099 210.262 48.8101 209.012 49.1854C207.762 49.5733 206.587 50.1113 205.512 50.812C205.475 50.8496 205.437 50.8746 205.4 50.8871C205.187 50.1614 204.725 49.5483 204.1 49.1604C203.65 48.8851 203.113 48.7225 202.538 48.7225C200.938 48.7225 199.638 49.9737 199.563 51.5502C199.563 51.6003 199.563 51.6628 199.563 51.7129V76.362C199.563 76.4496 199.562 76.5372 199.575 76.6248C199.675 78.1763 200.975 79.415 202.55 79.415C204.2 79.415 205.538 78.0762 205.538 76.4246V73.1463V61.9479C205.538 60.9469 205.725 59.996 206.113 59.1076C206.5 58.2193 207.025 57.431 207.7 56.7553C208.375 56.0797 209.162 55.5416 210.075 55.1663C210.987 54.7784 211.938 54.5907 212.938 54.5907C213.938 54.5907 214.887 54.7784 215.775 55.1663C216.662 55.5542 217.45 56.0797 218.125 56.7553C218.8 57.431 219.337 58.2193 219.712 59.1076C220.1 59.996 220.288 60.9469 220.288 61.9479V73.1463V76.4246C220.288 78.0762 221.625 79.415 223.275 79.415C224.925 79.415 226.262 78.0762 226.262 76.4246V73.1463V61.9479C226.262 60.9469 226.45 59.996 226.837 59.1076C227.225 58.2193 227.75 57.431 228.425 56.7553C229.1 56.0797 229.888 55.5416 230.8 55.1663C231.713 54.7784 232.663 54.5907 233.663 54.5907C234.663 54.5907 235.612 54.7784 236.5 55.1663C237.388 55.5542 238.175 56.0797 238.85 56.7553C239.525 57.431 240.062 58.2193 240.438 59.1076C240.825 59.996 241.012 60.9469 241.012 61.9479V73.1463V76.4246C241.012 78.0762 242.35 79.415 244 79.415C245.65 79.415 246.988 78.0762 246.988 76.4246V61.9479C247 59.6331 246.463 57.4935 245.375 55.5416Z" fill="black"/>
</svg>
