<svg width="44" height="44" viewBox="0 0 44 44" fill="none" xmlns="http://www.w3.org/2000/svg">
<path d="M14.8915 37.0126C15.1428 36.8953 15.4191 36.8419 15.696 36.8569C16.3192 36.8905 16.8791 37.2828 17.163 37.8867L18.569 40.8992L21.0009 34.2168C20.6285 34.1203 20.2708 33.974 19.9375 33.7819L18.8789 33.1705C18.344 32.8613 17.7373 32.6981 17.1195 32.6972H15.8971C15.2616 32.6968 14.6341 32.555 14.06 32.2822L11.8184 38.4437L14.8915 37.0126Z" fill="#E4CBF5"/>
<path d="M18.7733 41.2445C18.7597 41.2828 18.7349 41.3161 18.7022 41.3401C18.6695 41.3642 18.6303 41.3778 18.5897 41.3794H18.5802C18.5412 41.3794 18.503 41.3682 18.47 41.3473C18.4371 41.3263 18.4108 41.2964 18.3942 41.2611L16.8799 38.018C16.648 37.5207 16.1881 37.1946 15.6798 37.1662C15.4533 37.1534 15.2271 37.197 15.0215 37.293L11.7179 38.831C11.6812 38.8481 11.6402 38.8539 11.6001 38.8477C11.56 38.8415 11.5227 38.8236 11.4928 38.7962C11.4629 38.7689 11.4417 38.7333 11.432 38.6939C11.4223 38.6545 11.4245 38.6132 11.4383 38.575L13.7803 32.1401C13.5589 32.0149 13.3491 31.8703 13.1532 31.708L10.4994 39.0047C10.4558 39.124 10.4486 39.2535 10.4787 39.3769C10.5088 39.5002 10.5748 39.6119 10.6684 39.6977C10.762 39.7836 10.8789 39.8397 11.0044 39.859C11.1299 39.8784 11.2584 39.86 11.3734 39.8064L15.3339 37.9608C15.488 37.8893 15.6643 37.8818 15.8239 37.94C15.9836 37.9982 16.1137 38.1173 16.1857 38.2712L18.0313 42.2274C18.085 42.3425 18.1716 42.4391 18.2802 42.5049C18.3888 42.5708 18.5145 42.603 18.6414 42.5974C18.7683 42.5918 18.8907 42.5488 18.9931 42.4736C19.0955 42.3985 19.1733 42.2947 19.2167 42.1753L22.0636 34.3533C21.8091 34.3527 21.5551 34.3294 21.3046 34.2838L18.7733 41.2445Z" fill="#E4CBF5"/>
<path d="M11.4934 38.7981C11.5232 38.8256 11.5606 38.8436 11.6007 38.8497C11.6409 38.8559 11.6819 38.8499 11.7186 38.8326L15.0223 37.2946C15.2278 37.1986 15.454 37.155 15.6805 37.1678C16.1888 37.1952 16.6487 37.5213 16.8806 38.0196L18.3949 41.2626C18.4115 41.298 18.4378 41.3279 18.4707 41.3488C18.5037 41.3698 18.5419 41.3809 18.5809 41.3809H18.5904C18.631 41.3794 18.6702 41.3657 18.7029 41.3417C18.7356 41.3176 18.7604 41.2843 18.774 41.2461L21.3043 34.2839C21.2017 34.265 21.0994 34.2428 20.9982 34.2163L18.5681 40.8997L17.1622 37.8871C16.8816 37.2856 16.3203 36.8933 15.6952 36.8573C15.4183 36.8423 15.142 36.8958 14.8907 37.013L11.8176 38.4441L14.0592 32.2845C13.9646 32.2372 13.8699 32.1899 13.7814 32.1426L11.4385 38.5785C11.4251 38.6164 11.4231 38.6575 11.4329 38.6965C11.4426 38.7356 11.4637 38.7709 11.4934 38.7981Z" fill="white"/>
<path d="M27.0804 37.8299C27.1842 37.6064 27.3359 37.4085 27.5247 37.2502C27.5484 37.2303 27.5721 37.2109 27.5976 37.1924C28.0959 36.8172 28.7807 36.758 29.3817 37.0382L32.3957 38.4403L30.1445 32.2671C29.5611 32.5509 28.9208 32.6986 28.272 32.6991H27.0501C26.4323 32.7 25.8255 32.8632 25.2906 33.1724L24.2325 33.7819C23.9104 33.9678 23.5656 34.1109 23.2065 34.2078L25.6479 40.903L27.0804 37.8299Z" fill="#E4CBF5"/>
<path d="M32.7741 38.5732C32.788 38.6114 32.7903 38.6528 32.7807 38.6923C32.771 38.7317 32.7499 38.7675 32.72 38.7949C32.6901 38.8224 32.6526 38.8403 32.6125 38.8465C32.5724 38.8527 32.5313 38.8469 32.4945 38.8297L29.25 37.3201C28.7522 37.0887 28.1905 37.1351 27.783 37.4408C27.7622 37.4564 27.7423 37.472 27.7229 37.4881C27.5687 37.6173 27.4449 37.7789 27.3604 37.9614L25.8201 41.264C25.8038 41.2995 25.7776 41.3295 25.7447 41.3506C25.7118 41.3717 25.6736 41.3828 25.6346 41.3828H25.6251C25.5845 41.3813 25.5453 41.3676 25.5126 41.3435C25.4799 41.3195 25.4551 41.2862 25.4415 41.2479L22.9007 34.2778C22.6511 34.3255 22.3977 34.3513 22.1436 34.3549L24.9971 42.1807C25.0408 42.2994 25.1187 42.4026 25.2209 42.4773C25.3232 42.5519 25.4452 42.5947 25.5716 42.6001C25.6981 42.6056 25.8233 42.5735 25.9316 42.508C26.0399 42.4424 26.1264 42.3463 26.1802 42.2318L28.0258 38.2727C28.0979 38.1189 28.228 37.9999 28.3876 37.9417C28.5472 37.8835 28.7234 37.8909 28.8776 37.9623L32.8357 39.8036C32.9508 39.8571 33.0792 39.8753 33.2047 39.8559C33.3301 39.8364 33.447 39.7803 33.5405 39.6944C33.6341 39.6086 33.7001 39.4969 33.7302 39.3736C33.7603 39.2503 33.7532 39.1208 33.7097 39.0015L31.0454 31.6812C30.8508 31.8458 30.6419 31.9927 30.4213 32.1203L32.7741 38.5732Z" fill="#E4CBF5"/>
<path d="M25.6267 41.3826H25.6362C25.6752 41.3827 25.7134 41.3715 25.7463 41.3504C25.7792 41.3294 25.8053 41.2993 25.8217 41.2639L27.362 37.9617C27.4465 37.7792 27.5703 37.6176 27.7245 37.4884C27.7439 37.4719 27.7638 37.4563 27.7846 37.4411C28.1911 37.1354 28.7528 37.089 29.2516 37.3204L32.4961 38.83C32.5329 38.8472 32.574 38.853 32.6141 38.8468C32.6542 38.8406 32.6916 38.8227 32.7216 38.7952C32.7515 38.7678 32.7726 38.7321 32.7823 38.6926C32.7919 38.6531 32.7896 38.6117 32.7757 38.5736L30.4219 32.1211C30.3315 32.1736 30.2388 32.2224 30.1446 32.2678L32.3957 38.4411L29.3817 37.0389C28.7798 36.7587 28.096 36.8179 27.5977 37.1931C27.5726 37.2116 27.5504 37.231 27.5248 37.2509C27.3359 37.4092 27.1842 37.6071 27.0804 37.8306L25.648 40.9028L23.2066 34.2076C23.1053 34.235 23.0036 34.2582 22.9014 34.2781L25.4431 41.2478C25.4567 41.286 25.4814 41.3193 25.5142 41.3434C25.5469 41.3674 25.5861 41.3811 25.6267 41.3826Z" fill="white"/>
<path d="M37.5063 19.4458C37.8142 18.9106 37.9762 18.304 37.9762 17.6866C37.9762 17.0692 37.8142 16.4626 37.5063 15.9274L36.8954 14.8688C36.5185 14.2158 36.3201 13.4752 36.3199 12.7213V11.4989C36.3189 10.8815 36.1559 10.2751 35.8471 9.74039C35.5384 9.20568 35.0947 8.76135 34.5605 8.4518L33.5019 7.84086C32.8492 7.46334 32.3071 6.92109 31.9298 6.26833L31.3189 5.21019C31.0092 4.67594 30.5648 4.23228 30.03 3.92354C29.4952 3.61479 28.8888 3.45176 28.2713 3.45073H27.0494C26.2951 3.45044 25.554 3.252 24.9005 2.87528L23.8423 2.26435C23.3071 1.95647 22.7004 1.79443 22.0829 1.79443C21.4654 1.79443 20.8587 1.95647 20.3234 2.26435L19.2662 2.87528C18.613 3.25197 17.8723 3.45041 17.1182 3.45073H15.8964C15.2789 3.4517 14.6725 3.61471 14.1378 3.92347C13.6031 4.23222 13.1588 4.67591 12.8493 5.21019L12.2378 6.26833C11.8607 6.92125 11.3186 7.46356 10.6658 7.84086L9.60717 8.4518C9.07298 8.76138 8.62939 9.20572 8.32072 9.74043C8.01205 10.2751 7.84911 10.8815 7.84819 11.4989V12.7213C7.84778 13.4751 7.64934 14.2157 7.27274 14.8688L6.66133 15.9274C6.35344 16.4626 6.19141 17.0692 6.19141 17.6866C6.19141 18.304 6.35344 18.9106 6.66133 19.4458L7.27274 20.5044C7.64934 21.1575 7.84778 21.8981 7.84819 22.6519V23.8724C7.84911 24.4898 8.01205 25.0962 8.32072 25.6309C8.62939 26.1656 9.07298 26.6099 9.60717 26.9195L10.6658 27.5304C11.3186 27.9078 11.8607 28.4501 12.2378 29.103L12.8493 30.1611C13.1587 30.6955 13.603 31.1392 14.1377 31.448C14.6725 31.7567 15.2789 31.9197 15.8964 31.9206H17.1182C17.8723 31.9209 18.613 32.1193 19.2662 32.496L20.3244 33.107C20.8596 33.4148 21.4663 33.5769 22.0838 33.5769C22.7013 33.5769 23.308 33.4148 23.8433 33.107L24.9005 32.4979C25.5535 32.1213 26.2941 31.9228 27.048 31.9225H28.2699C28.8874 31.9215 29.4938 31.7585 30.0286 31.4498C30.5634 31.141 31.0078 30.6973 31.3174 30.163L31.9284 29.1049C32.3057 28.4521 32.8478 27.9099 33.5004 27.5323L34.5591 26.9214C35.0938 26.6119 35.538 26.1673 35.847 25.6322C36.156 25.0972 36.3191 24.4903 36.3199 23.8724V22.6519C36.3201 21.898 36.5185 21.1574 36.8954 20.5044L37.5063 19.4458ZM22.6687 21.1352L24.5588 14.9715C24.5757 14.9133 24.6053 14.8597 24.6454 14.8143C24.6677 14.7929 24.6943 14.7764 24.7234 14.7658C24.7525 14.7553 24.7835 14.7511 24.8143 14.7533H25.3349C25.3658 14.7511 25.3968 14.7553 25.4259 14.7658C25.455 14.7764 25.4815 14.7929 25.5038 14.8143C25.5435 14.8598 25.573 14.9132 25.5904 14.971L27.472 21.1329C27.4818 21.168 27.487 21.2043 27.4876 21.2408C27.4891 21.2922 27.4723 21.3425 27.4403 21.3827C27.4271 21.4015 27.4097 21.4169 27.3895 21.4277C27.3693 21.4384 27.3468 21.4443 27.3239 21.4447H26.9354C26.9084 21.4467 26.8814 21.442 26.8566 21.4311C26.8319 21.4202 26.8102 21.4035 26.7934 21.3823C26.7682 21.3497 26.7485 21.3133 26.7352 21.2744L26.3627 20.0724C26.35 20.0312 26.3243 19.9951 26.2896 19.9696C26.2548 19.944 26.2128 19.9303 26.1697 19.9304H23.9815C23.9384 19.9303 23.8964 19.9441 23.8618 19.9696C23.8271 19.9952 23.8015 20.0312 23.7889 20.0724L23.4164 21.2744C23.4077 21.3147 23.3887 21.3521 23.3611 21.3827C23.3433 21.4038 23.3207 21.4204 23.2953 21.4312C23.2699 21.4419 23.2424 21.4466 23.2148 21.4447H22.8263C22.8034 21.4443 22.7809 21.4384 22.7607 21.4277C22.7405 21.4169 22.7231 21.4015 22.7099 21.3827C22.6778 21.3425 22.6611 21.2922 22.6626 21.2408C22.6626 21.2055 22.6646 21.1703 22.6687 21.1352ZM17.2938 17.5009L18.9274 14.8413C18.9667 14.7775 19.0217 14.7248 19.0872 14.6883C19.1526 14.6518 19.2263 14.6326 19.3012 14.6326C19.3762 14.6326 19.4499 14.6518 19.5153 14.6883C19.5808 14.7248 19.6358 14.7775 19.6751 14.8413L21.312 17.5056C21.3914 17.635 21.4346 17.7834 21.4371 17.9353C21.4395 18.0872 21.401 18.2369 21.3257 18.3688L19.704 21.2081C19.6661 21.2752 19.6111 21.331 19.5446 21.3698C19.478 21.4086 19.4024 21.4291 19.3254 21.4291H19.323C19.2464 21.4295 19.171 21.4096 19.1045 21.3715C19.038 21.3333 18.9828 21.2783 18.9444 21.2119L17.2843 18.3725C17.2065 18.2401 17.1663 18.089 17.1679 17.9354C17.1696 17.7818 17.2131 17.6316 17.2938 17.5009ZM12.7806 18.8439C12.7346 18.844 12.6905 18.8623 12.658 18.8949C12.6254 18.9274 12.6071 18.9715 12.607 19.0176V21.2124C12.6091 21.2716 12.5907 21.3298 12.5549 21.3771C12.5381 21.3986 12.5166 21.4158 12.4919 21.4274C12.4672 21.439 12.4402 21.4446 12.4129 21.4438H12.0093C11.9823 21.445 11.9555 21.4394 11.9313 21.4277C11.907 21.416 11.886 21.3984 11.8701 21.3766C11.8371 21.3284 11.8205 21.2708 11.8228 21.2124V15.3765C11.8231 15.2113 11.8888 15.0529 12.0056 14.9361C12.1225 14.8193 12.2808 14.7536 12.4461 14.7533H13.9453C14.3238 14.7533 14.6551 14.8309 14.93 14.9833C15.2112 15.1403 15.4373 15.3798 15.5779 15.6695C15.7303 15.9714 15.8079 16.3528 15.8079 16.8052C15.8079 17.2576 15.7303 17.6367 15.5779 17.9343C15.4361 18.2223 15.2097 18.46 14.9291 18.6158C14.6523 18.7686 14.3205 18.8458 13.9443 18.8458L12.7806 18.8439ZM32.7939 17.9324C32.6521 18.2204 32.4258 18.4581 32.1451 18.6139C31.8678 18.7667 31.5365 18.8439 31.1603 18.8439H29.9976C29.9516 18.844 29.9075 18.8623 29.8749 18.8949C29.8424 18.9274 29.8241 18.9715 29.8239 19.0176V21.2124C29.826 21.2716 29.8076 21.3298 29.7719 21.3771C29.7551 21.3985 29.7335 21.4157 29.7088 21.4273C29.6842 21.4389 29.6571 21.4446 29.6299 21.4438H29.2262C29.1993 21.4449 29.1724 21.4394 29.1481 21.4276C29.1237 21.4159 29.1026 21.3984 29.0866 21.3766C29.0535 21.3284 29.0369 21.2708 29.0393 21.2124V15.3765C29.0396 15.2116 29.1051 15.0534 29.2216 14.9366C29.3382 14.8198 29.4962 14.7539 29.6611 14.7533H31.1603C31.5389 14.7533 31.8702 14.8309 32.1451 14.9833C32.4266 15.1401 32.6531 15.3797 32.7939 15.6695C32.9463 15.9714 33.0234 16.3528 33.0234 16.8052C33.0234 17.2576 32.9453 17.6343 32.7939 17.9324Z" fill="white"/>
<path d="M29.9986 18.0205H31.1225C31.4931 18.0205 31.7742 17.9159 31.9592 17.71C32.1442 17.5042 32.236 17.2003 32.236 16.8038C32.236 16.4072 32.1447 16.11 31.9649 15.898C31.785 15.686 31.5011 15.5781 31.1206 15.5781H29.9986C29.9505 15.5782 29.9043 15.5974 29.8703 15.6315C29.8362 15.6655 29.817 15.7117 29.8169 15.7598V17.8383C29.8169 17.8865 29.836 17.9328 29.8701 17.9669C29.9042 18.0011 29.9504 18.0203 29.9986 18.0205Z" fill="white"/>
<path d="M13.9057 15.5781H12.7818C12.7337 15.5782 12.6875 15.5974 12.6535 15.6315C12.6194 15.6655 12.6002 15.7117 12.6001 15.7598V17.8383C12.6001 17.8865 12.6192 17.9328 12.6533 17.9669C12.6874 18.0011 12.7336 18.0203 12.7818 18.0205H13.9057C14.2758 18.0205 14.5574 17.9159 14.7424 17.71C14.9274 17.5042 15.0216 17.1985 15.0216 16.8038C15.0216 16.4091 14.9303 16.11 14.75 15.898C14.5697 15.686 14.2862 15.5781 13.9057 15.5781Z" fill="white"/>
<path d="M24.163 19.0867H25.985C25.9967 19.0869 26.0082 19.0842 26.0187 19.0789C26.0292 19.0736 26.0382 19.0659 26.0451 19.0565C26.052 19.0471 26.0567 19.0362 26.0588 19.0247C26.0608 19.0132 26.0602 19.0014 26.0569 18.9902L25.1459 15.9956C25.141 15.9807 25.1315 15.9677 25.1187 15.9585C25.106 15.9493 25.0907 15.9443 25.075 15.9443C25.0592 15.9443 25.0439 15.9493 25.0312 15.9585C25.0184 15.9677 25.0089 15.9807 25.004 15.9956L24.0925 18.9902C24.0895 19.0013 24.089 19.0129 24.0912 19.0241C24.0933 19.0354 24.098 19.046 24.1049 19.0551C24.1118 19.0643 24.1208 19.0717 24.131 19.0769C24.1412 19.082 24.1525 19.0848 24.164 19.0848L24.163 19.0867Z" fill="white"/>
<path d="M38.1792 15.5392L37.5683 14.4811C37.259 13.9463 37.0958 13.3395 37.0951 12.7216V11.4993C37.0939 10.7456 36.8949 10.0053 36.5179 9.35259C36.141 8.69987 35.5993 8.15751 34.9471 7.77972L33.8923 7.16784C33.3574 6.85905 32.9131 6.41497 32.6041 5.88019L31.9932 4.82158C31.6153 4.16936 31.0729 3.62775 30.42 3.2509C29.7672 2.87404 29.0269 2.67514 28.2732 2.67407H27.0499C26.432 2.67317 25.8253 2.50998 25.2904 2.20084L24.2323 1.58943C23.5789 1.21349 22.8383 1.01563 22.0845 1.01562C21.3307 1.01563 20.5901 1.21349 19.9368 1.58943L18.8782 2.20084C18.3433 2.51003 17.7365 2.67322 17.1187 2.67407H15.8968C15.1431 2.67514 14.4028 2.87404 13.7499 3.2509C13.0971 3.62775 12.5547 4.16936 12.1768 4.82158L11.5659 5.88066C11.2569 6.41521 10.8129 6.85912 10.2782 7.16784L9.22006 7.77925C8.56782 8.15704 8.02617 8.69939 7.64923 9.35212C7.27229 10.0048 7.07328 10.7451 7.07208 11.4988V12.7212C7.07134 13.339 6.90814 13.9458 6.59885 14.4806L5.98933 15.5392C5.61339 16.1926 5.41553 16.9332 5.41553 17.687C5.41553 18.4408 5.61339 19.1814 5.98933 19.8347L6.60027 20.8914C6.90956 21.4263 7.07276 22.0331 7.0735 22.6509V23.8728C7.07485 24.6266 7.27393 25.3668 7.65085 26.0196C8.02776 26.6723 8.56933 27.2148 9.22148 27.5928L10.2782 28.2057C10.8131 28.5144 11.2573 28.9585 11.5663 29.4933L12.1773 30.5519C12.5609 31.2143 13.1142 31.7626 13.7801 32.1401C13.8709 32.1917 13.9637 32.2395 14.0579 32.282C14.6319 32.5548 15.2594 32.6966 15.8949 32.6971H17.1168C17.7346 32.6979 18.3414 32.8611 18.8763 33.1703L19.9368 33.7822C20.27 33.9743 20.6277 34.1206 21.0001 34.2171C21.1014 34.2436 21.2036 34.2644 21.3063 34.2847C21.5561 34.3306 21.8095 34.3541 22.0635 34.3552H22.0829H22.1434C22.3976 34.3516 22.6509 34.3258 22.9006 34.2781C23.0028 34.2582 23.1046 34.2351 23.2058 34.2076C23.5648 34.1107 23.9097 33.9676 24.2318 33.7817L25.2899 33.1703C25.8248 32.8611 26.4316 32.698 27.0494 32.6971H28.2713C28.9201 32.6965 29.5604 32.5488 30.1438 32.265C30.2385 32.2177 30.3331 32.1704 30.4211 32.1183C31.0726 31.7416 31.614 31.2007 31.9913 30.5496L32.6022 29.4909C32.9122 28.9569 33.3571 28.5137 33.8923 28.2057L34.9504 27.5947C35.6027 27.2166 36.1443 26.6737 36.521 26.0206C36.8977 25.3674 37.0963 24.6268 37.097 23.8728V22.6523C37.0977 22.0345 37.2609 21.4277 37.5702 20.8929L38.1811 19.8347C38.5568 19.1812 38.7543 18.4405 38.754 17.6867C38.7537 16.9329 38.5555 16.1924 38.1792 15.5392ZM36.3204 23.8728C36.3194 24.4902 36.1563 25.0966 35.8476 25.6313C35.5388 26.166 35.0952 26.6103 34.5609 26.9199L33.5023 27.5308C32.8497 27.9084 32.3076 28.4506 31.9303 29.1034L31.3193 30.1615C31.0097 30.6958 30.5653 31.1395 30.0305 31.4483C29.4957 31.757 28.8893 31.92 28.2717 31.921H27.0499C26.2953 31.9216 25.5542 32.1207 24.9009 32.4983L23.8423 33.1092C23.3071 33.4171 22.7004 33.5792 22.0829 33.5792C21.4654 33.5792 20.8587 33.4171 20.3234 33.1092L19.2653 32.4983C18.6121 32.1216 17.8713 31.9232 17.1173 31.9229H15.8968C15.2794 31.922 14.6729 31.759 14.1382 31.4502C13.6035 31.1415 13.1592 30.6977 12.8497 30.1634L12.2383 29.1053C11.8612 28.4523 11.3191 27.91 10.6662 27.5327L9.60763 26.9218C9.07317 26.6121 8.62939 26.1674 8.32071 25.6323C8.01202 25.0973 7.84924 24.4905 7.84865 23.8728V22.6523C7.84824 21.8984 7.6498 21.1579 7.2732 20.5048L6.66179 19.4462C6.35391 18.911 6.19187 18.3044 6.19187 17.687C6.19187 17.0696 6.35391 16.4629 6.66179 15.9278L7.2732 14.8691C7.6498 14.2161 7.84824 13.4755 7.84865 12.7216V11.4993C7.84957 10.8819 8.01251 10.2755 8.32118 9.74081C8.62985 9.2061 9.07344 8.76176 9.60763 8.45218L10.6662 7.84125C11.3191 7.46394 11.8612 6.92163 12.2383 6.26871L12.8497 5.21057C13.1592 4.67629 13.6036 4.2326 14.1383 3.92385C14.673 3.61509 15.2794 3.45208 15.8968 3.45111H17.1187C17.8727 3.45079 18.6135 3.25235 19.2667 2.87567L20.3248 2.26473C20.8601 1.95685 21.4668 1.79481 22.0843 1.79481C22.7018 1.79481 23.3085 1.95685 23.8437 2.26473L24.9009 2.87567C25.5542 3.25222 26.2949 3.45065 27.0489 3.45111H28.2708C28.8883 3.45214 29.4947 3.61517 30.0295 3.92392C30.5643 4.23266 31.0087 4.67632 31.3184 5.21057L31.9303 6.26871C32.3076 6.92147 32.8497 7.46373 33.5023 7.84125L34.5609 8.45218C35.0952 8.76173 35.5388 9.20606 35.8476 9.74077C36.1563 10.2755 36.3194 10.8818 36.3204 11.4993V12.7216C36.3206 13.4756 36.519 14.2162 36.8958 14.8691L37.5068 15.9278C37.8147 16.4629 37.9767 17.0696 37.9767 17.687C37.9767 18.3044 37.8147 18.911 37.5068 19.4462L36.8958 20.5048C36.519 21.1578 36.3206 21.8984 36.3204 22.6523V23.8728Z" fill="#5C5AA0"/>
<path d="M14.9287 18.6144C15.2097 18.4588 15.4364 18.2211 15.5785 17.933C15.7308 17.6353 15.8085 17.2553 15.8085 16.8039C15.8085 16.3524 15.7308 15.9719 15.5785 15.6681C15.4376 15.3783 15.2111 15.1388 14.9297 14.9819C14.6528 14.8296 14.3211 14.752 13.9449 14.752H12.4447C12.2795 14.7522 12.1212 14.8179 12.0043 14.9348C11.8875 15.0516 11.8218 15.21 11.8215 15.3752V21.2129C11.8192 21.2713 11.8358 21.3289 11.8688 21.3771C11.8847 21.399 11.9057 21.4165 11.9299 21.4282C11.9542 21.44 11.981 21.4455 12.008 21.4443H12.4116C12.4389 21.4451 12.4659 21.4395 12.4906 21.4279C12.5152 21.4163 12.5368 21.3991 12.5536 21.3776C12.5894 21.3303 12.6077 21.2722 12.6056 21.2129V19.0181C12.6058 18.9721 12.6241 18.928 12.6567 18.8954C12.6892 18.8629 12.7333 18.8446 12.7793 18.8444H13.942C14.3202 18.8444 14.6519 18.7673 14.9287 18.6144ZM15.0234 16.8039C15.0234 17.1985 14.9287 17.5038 14.7442 17.7101C14.5596 17.9164 14.2776 18.0205 13.9075 18.0205H12.7817C12.7334 18.0204 12.6872 18.0012 12.6532 17.967C12.6191 17.9329 12.6 17.8866 12.6 17.8383V15.7599C12.6001 15.7118 12.6193 15.6656 12.6533 15.6316C12.6874 15.5975 12.7335 15.5783 12.7817 15.5782H13.9056C14.2842 15.5782 14.5705 15.6856 14.7498 15.8981C14.9292 16.1106 15.0215 16.4149 15.0215 16.8039H15.0234Z" fill="#5C5AA0"/>
<path d="M22.8269 21.444H23.2154C23.2429 21.4459 23.2705 21.4412 23.2959 21.4304C23.3213 21.4197 23.3438 21.4031 23.3616 21.382C23.3892 21.3513 23.4083 21.314 23.417 21.2736L23.7894 20.0716C23.8021 20.0305 23.8277 19.9945 23.8623 19.9689C23.897 19.9433 23.939 19.9296 23.982 19.9297H26.1655C26.2086 19.9296 26.2507 19.9433 26.2854 19.9689C26.3202 19.9944 26.3458 20.0304 26.3586 20.0716L26.731 21.2736C26.7444 21.3126 26.764 21.349 26.7892 21.3815C26.806 21.4027 26.8277 21.4195 26.8525 21.4304C26.8772 21.4412 26.9042 21.4459 26.9312 21.444H27.3197C27.3426 21.4436 27.3651 21.4377 27.3853 21.4269C27.4056 21.4162 27.423 21.4008 27.4361 21.382C27.4682 21.3418 27.4849 21.2915 27.4834 21.24C27.4828 21.2036 27.4776 21.1673 27.4678 21.1322L25.5886 14.9712C25.5712 14.9134 25.5417 14.86 25.502 14.8146C25.4797 14.7931 25.4532 14.7766 25.4241 14.7661C25.395 14.7555 25.364 14.7513 25.3331 14.7535H24.8125C24.7817 14.7513 24.7507 14.7555 24.7216 14.7661C24.6925 14.7766 24.6659 14.7931 24.6436 14.8146C24.6035 14.8599 24.5739 14.9136 24.557 14.9717L22.6693 21.1355C22.6649 21.1705 22.6625 21.2057 22.6622 21.241C22.6607 21.2924 22.6775 21.3427 22.7095 21.383C22.7229 21.4017 22.7405 21.417 22.7609 21.4276C22.7813 21.4382 22.8039 21.4438 22.8269 21.444ZM24.0914 18.9898L25.0028 15.9953C25.0077 15.9803 25.0172 15.9673 25.03 15.9581C25.0427 15.9489 25.0581 15.944 25.0738 15.944C25.0895 15.944 25.1048 15.9489 25.1176 15.9581C25.1303 15.9673 25.1398 15.9803 25.1448 15.9953L26.0557 18.9898C26.059 19.0011 26.0596 19.0129 26.0576 19.0244C26.0555 19.0359 26.0508 19.0467 26.0439 19.0561C26.037 19.0656 26.028 19.0733 26.0175 19.0785C26.0071 19.0838 25.9955 19.0865 25.9838 19.0864H24.1628C24.1513 19.0863 24.1401 19.0836 24.1298 19.0784C24.1196 19.0733 24.1107 19.0658 24.1038 19.0567C24.0968 19.0475 24.0921 19.0369 24.09 19.0257C24.0878 19.0144 24.0883 19.0028 24.0914 18.9917V18.9898Z" fill="#5C5AA0"/>
<path d="M18.9451 21.2107C18.9834 21.277 19.0386 21.3321 19.1051 21.3702C19.1716 21.4084 19.247 21.4283 19.3236 21.4279H19.326C19.403 21.4279 19.4787 21.4074 19.5452 21.3686C19.6117 21.3297 19.6667 21.2739 19.7046 21.2069L21.3263 18.3675C21.4016 18.2356 21.4401 18.0859 21.4377 17.9341C21.4353 17.7822 21.3921 17.6338 21.3126 17.5044L19.6757 14.8401C19.6364 14.7763 19.5814 14.7236 19.516 14.6871C19.4505 14.6505 19.3768 14.6313 19.3019 14.6313C19.2269 14.6313 19.1532 14.6505 19.0878 14.6871C19.0223 14.7236 18.9673 14.7763 18.928 14.8401L17.2944 17.4996C17.214 17.6302 17.1707 17.7801 17.169 17.9334C17.1673 18.0868 17.2074 18.2376 17.285 18.3699L18.9451 21.2107ZM19.4183 15.9862L20.6013 17.9094C20.6136 17.9301 20.6201 17.9538 20.6201 17.9778C20.6201 18.0019 20.6136 18.0255 20.6013 18.0462L19.4339 20.0896C19.4221 20.1099 19.4052 20.1268 19.3849 20.1386C19.3645 20.1503 19.3414 20.1565 19.318 20.1565C19.2945 20.1565 19.2714 20.1503 19.251 20.1386C19.2307 20.1268 19.2138 20.1099 19.202 20.0896L18.0066 18.0457C17.9942 18.0249 17.9877 18.0011 17.9877 17.9769C17.9877 17.9526 17.9942 17.9288 18.0066 17.908L19.1897 15.9853C19.2019 15.9663 19.2187 15.9507 19.2386 15.9399C19.2585 15.9291 19.2807 15.9235 19.3033 15.9236C19.3259 15.9237 19.3481 15.9295 19.3679 15.9404C19.3876 15.9514 19.4043 15.9671 19.4164 15.9862H19.4183Z" fill="#5C5AA0"/>
<path d="M19.1874 15.9865L18.0043 17.9093C17.9919 17.9301 17.9854 17.9539 17.9854 17.9781C17.9854 18.0024 17.9919 18.0262 18.0043 18.047L19.1997 20.0908C19.2115 20.1112 19.2284 20.1281 19.2487 20.1398C19.2691 20.1516 19.2921 20.1577 19.3156 20.1577C19.3391 20.1577 19.3622 20.1516 19.3826 20.1398C19.4029 20.1281 19.4198 20.1112 19.4316 20.0908L20.599 18.0475C20.6113 18.0268 20.6178 18.0031 20.6178 17.9791C20.6178 17.955 20.6113 17.9314 20.599 17.9107L19.416 15.9875C19.404 15.968 19.3872 15.9518 19.3673 15.9406C19.3473 15.9294 19.3248 15.9234 19.3019 15.9233C19.2791 15.9232 19.2565 15.929 19.2365 15.9401C19.2164 15.9511 19.1995 15.9671 19.1874 15.9865Z" fill="white"/>
<path d="M32.146 14.9839C31.8687 14.8315 31.5374 14.7539 31.1612 14.7539H29.662C29.4968 14.7542 29.3385 14.8199 29.2216 14.9367C29.1048 15.0536 29.0391 15.2119 29.0388 15.3771V21.213C29.0364 21.2714 29.053 21.329 29.0861 21.3772C29.1021 21.399 29.1232 21.4165 29.1475 21.4282C29.1719 21.44 29.1987 21.4455 29.2257 21.4444H29.6294C29.6566 21.4452 29.6837 21.4395 29.7083 21.4279C29.733 21.4163 29.7546 21.3991 29.7714 21.3777C29.8071 21.3304 29.8255 21.2722 29.8234 21.213V19.0182C29.8235 18.9721 29.8419 18.928 29.8744 18.8955C29.907 18.8629 29.9511 18.8446 29.9971 18.8445H31.1598C31.5384 18.8445 31.8697 18.7674 32.1446 18.6145C32.4252 18.4587 32.6516 18.221 32.7934 17.933C32.9458 17.6349 33.0229 17.2549 33.0229 16.8039C33.0229 16.3529 32.9458 15.972 32.7934 15.6682C32.6526 15.3793 32.4267 15.1405 32.146 14.9839ZM29.8173 15.76C29.8174 15.7118 29.8366 15.6657 29.8706 15.6316C29.9047 15.5976 29.9508 15.5784 29.999 15.5783H31.1229C31.5015 15.5783 31.7854 15.6857 31.9671 15.8982C32.1489 16.1107 32.2364 16.4149 32.2364 16.8039C32.2364 17.1929 32.1418 17.5038 31.9577 17.7102C31.7736 17.9165 31.4915 18.0206 31.121 18.0206H29.999C29.9507 18.0205 29.9045 18.0012 29.8705 17.9671C29.8364 17.9329 29.8173 17.8866 29.8173 17.8384V15.76Z" fill="#5C5AA0"/>
</svg>
